Coordinates
version=1
nRows=65
nColumns=12
inDegrees=yes

Units are S.I. units (second, meters, Newtons, ...)
Angles are in degrees

endheader
time	SC_y	SC_z	SC_x	AC_y	AC_z	AC_x	GH_y	GH_z	GH_yy	EL_x	PS_y
       0.0              -27.75           10.4          34.16          58.03         -11.31         -10.46          139.3          48.66          57.35          15.87          105.5
   0.02395              -27.75           10.4          34.16          58.02         -11.31         -10.46          139.3          48.67          57.31          15.87          105.5
   0.04789              -27.74           10.4          34.16          58.02         -11.32         -10.46          139.2          48.67          57.28          15.87          105.5
   0.07184              -27.74           10.4          34.16          58.02         -11.32         -10.45          139.2          48.67          57.24          15.88          105.5
   0.09578              -27.74           10.4          34.17          58.01         -11.32         -10.45          139.2          48.68           57.2          15.88          105.5
    0.1197              -27.74           10.4          34.17          58.01         -11.32         -10.45          139.1          48.68          57.15          15.88          105.5
    0.1437              -27.73           10.4          34.17           58.0         -11.32         -10.45          139.0          48.69          57.11          15.88          105.5
    0.1676              -27.73           10.4          34.17           58.0         -11.32         -10.45          139.0           48.7          57.06          15.88          105.5
    0.1916              -27.73           10.4          34.18          57.99         -11.32         -10.44          138.9           48.7           57.0          15.89          105.5
    0.2155              -27.72           10.4          34.18          57.98         -11.32         -10.44          138.9          48.71          56.94          15.89          105.5
    0.2395              -27.72           10.4          34.18          57.98         -11.33         -10.44          138.8          48.72          56.88          15.89          105.5
    0.2634              -27.72           10.4          34.19          57.97         -11.33         -10.43          138.7          48.72          56.81           15.9          105.5
    0.2873              -27.71           10.4          34.19          57.96         -11.33         -10.43          138.6          48.73          56.74           15.9          105.5
    0.3113              -27.71           10.4           34.2          57.95         -11.33         -10.43          138.5          48.74          56.66           15.9          105.5
    0.3352               -27.7           10.4           34.2          57.95         -11.33         -10.42          138.4          48.75          56.58          15.91          105.6
    0.3592               -27.7           10.4          34.21          57.94         -11.34         -10.42          138.3          48.76          56.49          15.91          105.6
    0.3831              -27.69           10.4          34.21          57.92         -11.34         -10.41          138.2          48.77          56.39          15.91          105.6
    0.4071              -27.69           10.4          34.22          57.91         -11.34         -10.41          138.1          48.78          56.28          15.92          105.6
     0.431              -27.68           10.4          34.23           57.9         -11.35          -10.4          138.0           48.8          56.16          15.92          105.6
     0.455              -27.67           10.4          34.23          57.89         -11.35          -10.4          137.8          48.81          56.03          15.93          105.6
    0.4789              -27.66           10.4          34.24          57.87         -11.35         -10.39          137.7          48.83          55.89          15.94          105.6
    0.5029              -27.66           10.4          34.25          57.86         -11.36         -10.38          137.5          48.84          55.73          15.94          105.6
    0.5268              -27.65           10.4          34.26          57.84         -11.36         -10.38          137.3          48.86          55.56          15.95          105.6
    0.5508              -27.64           10.4          34.27          57.82         -11.37         -10.37          137.1          48.89          55.37          15.96          105.6
    0.5747              -27.62           10.4          34.29          57.79         -11.37         -10.36          136.8          48.91          55.15          15.97          105.6
    0.5986              -27.61           10.4           34.3          57.77         -11.38         -10.34          136.5          48.94          54.92          15.98          105.6
    0.6226              -27.59           10.4          34.32          57.74         -11.39         -10.33          136.2          48.97          54.65          15.99          105.6
    0.6465              -27.58           10.4          34.34          57.71         -11.39         -10.32          135.9           49.0          54.35           16.0          105.7
    0.6705              -27.56           10.4          34.36          57.67          -11.4          -10.3          135.5          49.04          54.01          16.02          105.7
    0.6944              -27.54           10.4          34.38          57.63         -11.41         -10.28          135.1          49.08          53.63          16.04          105.7
    0.7184              -27.51           10.4           34.4          57.58         -11.42         -10.26          134.6          49.13          53.19          16.05          105.7
    0.7423              -27.48           10.4          34.43          57.53         -11.44         -10.24          134.0          49.19          52.68          16.08          105.7
    0.7663              -27.45           10.4          34.47          57.47         -11.45         -10.21          133.3          49.25           52.1           16.1          105.8
    0.7902              -27.41           10.4          34.51           57.4         -11.47         -10.18          132.6          49.33          51.43          16.13          105.8
    0.8142              -27.37           10.4          34.56          57.31         -11.49         -10.14          131.6          49.42          50.64          16.17          105.8
    0.8381              -27.31           10.4          34.61          57.21         -11.52          -10.1          130.6          49.53           49.7          16.21          105.9
     0.862              -27.25          10.41          34.68           57.1         -11.55         -10.05          129.3          49.65           48.6          16.26          105.9
     0.886              -27.18          10.41          34.76          56.96         -11.58         -9.983          127.8           49.8          47.27          16.31          106.0
    0.9099              -27.08          10.41          34.85          56.78         -11.63         -9.907          126.0          49.98          45.66          16.38          106.1
    0.9339              -26.97          10.41          34.97          56.58         -11.68         -9.814          123.7           50.2           43.7          16.47          106.2
    0.9578              -26.84          10.41          35.12          56.32         -11.74         -9.699          120.9          50.48          41.28          16.58          106.3
    0.9818              -26.66          10.41           35.3           56.0         -11.82         -9.556          117.5          50.82          38.26          16.71          106.4
     1.006              -26.45          10.41          35.52          55.59         -11.93         -9.376          113.1          51.25          34.45          16.88          106.6
      1.03              -26.17          10.41          35.81          55.08         -12.06         -9.147          107.6          51.79          29.61          17.09          106.8
     1.054              -25.82          10.42          36.18          54.42         -12.22         -8.854          100.5          52.49          23.42          17.36          107.1
     1.078              -25.37          10.42          36.66          53.58         -12.43         -8.478          91.45          53.39          15.48          17.71          107.5
     1.102               -24.8          10.42          37.26           52.5         -12.71         -7.997          79.84          54.54          5.329          18.15          108.0
     1.125              -24.07          10.43          38.03          51.14         -13.05         -7.393          65.25          55.98         -7.432          18.71          108.6
     1.149              -23.19          10.43          38.95          49.49         -13.46         -6.657          47.47          57.73         -22.98           19.4          109.3
     1.173              -22.17          10.44          40.03          47.57         -13.94         -5.804          26.86          59.77         -41.01          20.19          110.2
     1.197              -21.06          10.45           41.2           45.5         -14.47          -4.88          4.546          61.97         -60.53          21.04          111.1
     1.221              -19.95          10.46          42.36          43.42         -14.99         -3.956         -17.77          64.18         -80.04           21.9          112.0
     1.245              -18.93          10.47          43.44           41.5         -15.47         -3.103         -38.38          66.21         -98.07          22.69          112.9
     1.269              -18.05          10.47          44.37          39.85         -15.89         -2.366         -56.16          67.97         -113.6          23.37          113.6
     1.293              -17.32          10.48          45.13          38.49         -16.23         -1.762         -70.75          69.41         -126.4          23.93          114.2
     1.317              -16.75          10.48          45.74          37.42          -16.5         -1.282         -82.36          70.56         -136.5          24.38          114.7
     1.341              -16.29          10.49          46.21          36.57         -16.71        -0.9057         -91.44          71.45         -144.5          24.73          115.0
     1.365              -15.94          10.49          46.58          35.91         -16.88        -0.6126         -98.52          72.15         -150.7           25.0          115.3
     1.389              -15.67          10.49          46.87           35.4         -17.01        -0.3836         -104.1           72.7         -155.5          25.21          115.6
     1.413              -15.45          10.49           47.1          34.99         -17.11        -0.2035         -108.4          73.13         -159.3          25.38          115.7
     1.437              -15.28          10.49          47.28          34.67         -17.19       -0.06047         -111.9          73.47         -162.3          25.51          115.9
     1.461              -15.14          10.49          47.42          34.42         -17.26        0.05419         -114.6          73.74         -164.7          25.61          116.0
     1.485              -15.03          10.49          47.54          34.21         -17.31         0.1471         -116.9          73.97         -166.7           25.7          116.1
     1.509              -14.94           10.5          47.64          34.04         -17.35         0.2232         -118.7          74.15         -168.3          25.77          116.2
     1.533              -14.87           10.5          47.72           33.9         -17.39          0.286         -120.2           74.3         -169.6          25.83          116.2
